<svg xmlns="http://www.w3.org/2000/svg" viewBox="0 0 960 540" role="img" aria-labelledby="title desc">
  <title id="title">MCP token audience release gate results</title>
  <desc id="desc">Grouped bar chart comparing scope-only, audience-only, and resource-bound policies by accuracy, mean score, and false negatives.</desc>
  <rect width="960" height="540" fill="#f8faf7"/>
  <text x="48" y="42" font-family="Inter, Arial, sans-serif" font-size="26" font-weight="700" fill="#17202a">Resource-bound MCP gates close token reuse paths</text>
  <text x="48" y="68" font-family="Inter, Arial, sans-serif" font-size="15" fill="#51606b">False negatives are scaled against an eight-case ceiling; lower is better.</text>
  <line x1="84" y1="448" x2="916" y2="448" stroke="#9aa7b0" stroke-width="1.5"/>
  <line x1="84" y1="78" x2="84" y2="448" stroke="#9aa7b0" stroke-width="1.5"/>
  <text x="36" y="86" font-family="Inter, Arial, sans-serif" font-size="13" fill="#51606b">1.0</text>
  <text x="46" y="452" font-family="Inter, Arial, sans-serif" font-size="13" fill="#51606b">0</text>
  <rect x="118" y="263" width="44" height="185" rx="5" fill="#1f6f8b"/>
<text x="140" y="253" text-anchor="middle" font-family="Inter, Arial, sans-serif" font-size="15" fill="#17202a">0.500</text>
<rect x="176" y="170.5" width="44" height="277.5" rx="5" fill="#b85c38"/>
<text x="198" y="160.5" text-anchor="middle" font-family="Inter, Arial, sans-serif" font-size="15" fill="#17202a">0.750</text>
<rect x="234" y="124.25" width="44" height="323.75" rx="5" fill="#5f4b8b"/>
<text x="256" y="114.25" text-anchor="middle" font-family="Inter, Arial, sans-serif" font-size="15" fill="#17202a">7</text>
<rect x="395.3333333333333" y="236.73000000000002" width="44" height="211.26999999999998" rx="5" fill="#1f6f8b"/>
<text x="417.3333333333333" y="226.73000000000002" text-anchor="middle" font-family="Inter, Arial, sans-serif" font-size="15" fill="#17202a">0.571</text>
<rect x="453.3333333333333" y="236.73000000000002" width="44" height="211.26999999999998" rx="5" fill="#b85c38"/>
<text x="475.3333333333333" y="226.73000000000002" text-anchor="middle" font-family="Inter, Arial, sans-serif" font-size="15" fill="#17202a">0.571</text>
<rect x="511.3333333333333" y="170.5" width="44" height="277.5" rx="5" fill="#5f4b8b"/>
<text x="533.3333333333333" y="160.5" text-anchor="middle" font-family="Inter, Arial, sans-serif" font-size="15" fill="#17202a">6</text>
<rect x="672.6666666666666" y="78" width="44" height="370" rx="5" fill="#1f6f8b"/>
<text x="694.6666666666666" y="68" text-anchor="middle" font-family="Inter, Arial, sans-serif" font-size="15" fill="#17202a">1.000</text>
<rect x="730.6666666666666" y="78" width="44" height="370" rx="5" fill="#b85c38"/>
<text x="752.6666666666666" y="68" text-anchor="middle" font-family="Inter, Arial, sans-serif" font-size="15" fill="#17202a">1.000</text>
<rect x="788.6666666666666" y="448" width="44" height="0" rx="5" fill="#5f4b8b"/>
<text x="810.6666666666666" y="438" text-anchor="middle" font-family="Inter, Arial, sans-serif" font-size="15" fill="#17202a">0</text>
  <text x="222.66666666666666" y="506" text-anchor="middle" font-family="Inter, Arial, sans-serif" font-size="18" fill="#17202a">scopeOnly</text>
<text x="500" y="506" text-anchor="middle" font-family="Inter, Arial, sans-serif" font-size="18" fill="#17202a">audienceOnly</text>
<text x="777.3333333333333" y="506" text-anchor="middle" font-family="Inter, Arial, sans-serif" font-size="18" fill="#17202a">resourceBound</text>
  <g transform="translate(82 482)" font-family="Inter, Arial, sans-serif" font-size="15" fill="#17202a">
    <rect x="0" y="0" width="18" height="18" rx="3" fill="#1f6f8b"/><text x="28" y="14">Accuracy</text>
    <rect x="138" y="0" width="18" height="18" rx="3" fill="#b85c38"/><text x="166" y="14">Mean score</text>
    <rect x="306" y="0" width="18" height="18" rx="3" fill="#5f4b8b"/><text x="334" y="14">False negatives</text>
  </g>
</svg>
