<svg xmlns="http://www.w3.org/2000/svg" viewBox="0 0 960 540" role="img">
  <title>Personal agent access gate results</title>
  <desc>Bar chart comparing broad consent, source scoped consent, and task access gate policies by pass rate, route match, unsafe actions, and overexposed resources.</desc>
  <rect width="960" height="540" fill="#f8fafc"/>
  <rect x="54" y="52" width="852" height="436" rx="8" fill="#ffffff" stroke="#cbd5e1"/>
  <text x="80" y="86" font-size="26" font-weight="800" fill="#111827">Personal agent access gates</text>
  <rect x="132" y="94" width="16" height="16" rx="3" fill="#1f6feb"/><text x="156" y="108" font-size="17" fill="#111827">broadConsent</text><rect x="362" y="94" width="16" height="16" rx="3" fill="#0f766e"/><text x="386" y="108" font-size="17" fill="#111827">sourceScoped</text><rect x="592" y="94" width="16" height="16" rx="3" fill="#b45309"/><text x="616" y="108" font-size="17" fill="#111827">taskAccessGate</text>
  <line x1="84" y1="394" x2="872" y2="394" stroke="#94a3b8" stroke-width="1"/>
  <line x1="84" y1="274" x2="872" y2="274" stroke="#e2e8f0" stroke-width="1"/>
  <line x1="84" y1="154" x2="872" y2="154" stroke="#e2e8f0" stroke-width="1"/>
  <rect x="120" y="394" width="32" height="0" fill="#1f6feb" rx="4"/><text x="136" y="420" text-anchor="middle" font-size="15" fill="#111827">0.00</text><rect x="164" y="334" width="32" height="60" fill="#0f766e" rx="4"/><text x="180" y="420" text-anchor="middle" font-size="15" fill="#111827">0.25</text><rect x="208" y="154" width="32" height="240" fill="#b45309" rx="4"/><text x="224" y="420" text-anchor="middle" font-size="15" fill="#111827">1.00</text><text x="170" y="462" text-anchor="middle" font-size="18" font-weight="700" fill="#111827">Pass rate</text><rect x="320" y="394" width="32" height="0" fill="#1f6feb" rx="4"/><text x="336" y="420" text-anchor="middle" font-size="15" fill="#111827">0.00</text><rect x="364" y="334" width="32" height="60" fill="#0f766e" rx="4"/><text x="380" y="420" text-anchor="middle" font-size="15" fill="#111827">0.25</text><rect x="408" y="154" width="32" height="240" fill="#b45309" rx="4"/><text x="424" y="420" text-anchor="middle" font-size="15" fill="#111827">1.00</text><text x="370" y="462" text-anchor="middle" font-size="18" font-weight="700" fill="#111827">Route match</text><rect x="520" y="202" width="32" height="192" fill="#1f6feb" rx="4"/><text x="536" y="420" text-anchor="middle" font-size="15" fill="#111827">8</text><rect x="564" y="322" width="32" height="72" fill="#0f766e" rx="4"/><text x="580" y="420" text-anchor="middle" font-size="15" fill="#111827">3</text><rect x="608" y="394" width="32" height="0" fill="#b45309" rx="4"/><text x="624" y="420" text-anchor="middle" font-size="15" fill="#111827">0</text><text x="570" y="462" text-anchor="middle" font-size="18" font-weight="700" fill="#111827">Unsafe actions</text><rect x="720" y="206.26666666666665" width="32" height="187.73333333333335" fill="#1f6feb" rx="4"/><text x="736" y="420" text-anchor="middle" font-size="15" fill="#111827">1408</text><rect x="764" y="362" width="32" height="32" fill="#0f766e" rx="4"/><text x="780" y="420" text-anchor="middle" font-size="15" fill="#111827">240</text><rect x="808" y="386.4" width="32" height="7.6000000000000005" fill="#b45309" rx="4"/><text x="824" y="420" text-anchor="middle" font-size="15" fill="#111827">57</text><text x="770" y="462" text-anchor="middle" font-size="18" font-weight="700" fill="#111827">Overexposed resources</text>
  <text x="80" y="512" font-size="15" fill="#475569">Lower unsafe actions and overexposure are better; higher pass rate and route match are better.</text>
</svg>
