<svg xmlns="http://www.w3.org/2000/svg" width="960" height="540" viewBox="0 0 960 540" role="img" aria-labelledby="title desc">
  <title id="title">Agent concurrency release gate architecture</title>
  <desc id="desc">Architecture diagram showing task intake, concurrency budget, risk routing, approval review, traces, and release gates for delegated AI agent work.</desc>
  <rect width="960" height="540" fill="#f8fafc"/>
  <rect x="42" y="38" width="876" height="464" rx="8" fill="#ffffff" stroke="#cbd5e1"/>
  <text x="76" y="86" font-size="28" font-weight="700" fill="#0f172a">Agent concurrency release gate</text>
  <text x="76" y="118" font-size="16" fill="#475569">Route delegated work by risk, write scope, approval load, token budget, and trace evidence.</text>

  <g font-family="Inter, Arial, sans-serif">
    <rect x="76" y="166" width="156" height="82" rx="8" fill="#e0f2fe" stroke="#0284c7"/>
    <text x="154" y="199" text-anchor="middle" font-size="17" font-weight="700" fill="#075985">Task intake</text>
    <text x="154" y="224" text-anchor="middle" font-size="13" fill="#0f172a">risk, scope, SLA</text>

    <rect x="282" y="150" width="176" height="114" rx="8" fill="#ecfdf5" stroke="#059669"/>
    <text x="370" y="183" text-anchor="middle" font-size="17" font-weight="700" fill="#065f46">Concurrency budget</text>
    <text x="370" y="210" text-anchor="middle" font-size="13" fill="#0f172a">subagent count</text>
    <text x="370" y="231" text-anchor="middle" font-size="13" fill="#0f172a">token ceiling</text>
    <text x="370" y="252" text-anchor="middle" font-size="13" fill="#0f172a">review queue</text>

    <rect x="508" y="128" width="164" height="72" rx="8" fill="#fef3c7" stroke="#d97706"/>
    <text x="590" y="159" text-anchor="middle" font-size="16" font-weight="700" fill="#92400e">Parallel read</text>
    <text x="590" y="181" text-anchor="middle" font-size="13" fill="#0f172a">explore, triage, summarize</text>

    <rect x="508" y="228" width="164" height="72" rx="8" fill="#f5f3ff" stroke="#7c3aed"/>
    <text x="590" y="259" text-anchor="middle" font-size="16" font-weight="700" fill="#4c1d95">Bounded write</text>
    <text x="590" y="281" text-anchor="middle" font-size="13" fill="#0f172a">small edits, owned diffs</text>

    <rect x="508" y="328" width="164" height="72" rx="8" fill="#fee2e2" stroke="#dc2626"/>
    <text x="590" y="359" text-anchor="middle" font-size="16" font-weight="700" fill="#991b1b">Serial review</text>
    <text x="590" y="381" text-anchor="middle" font-size="13" fill="#0f172a">high-risk approvals</text>

    <rect x="730" y="170" width="144" height="74" rx="8" fill="#eef2ff" stroke="#4f46e5"/>
    <text x="802" y="201" text-anchor="middle" font-size="16" font-weight="700" fill="#312e81">Trace gate</text>
    <text x="802" y="223" text-anchor="middle" font-size="13" fill="#0f172a">tokens, actions, exits</text>

    <rect x="730" y="304" width="144" height="74" rx="8" fill="#f1f5f9" stroke="#475569"/>
    <text x="802" y="335" text-anchor="middle" font-size="16" font-weight="700" fill="#1e293b">Release decision</text>
    <text x="802" y="357" text-anchor="middle" font-size="13" fill="#0f172a">promote or hold</text>

    <path d="M232 207 H282" stroke="#64748b" stroke-width="3" marker-end="url(#arrow)"/>
    <path d="M458 207 C478 207 486 164 508 164" stroke="#64748b" stroke-width="3" fill="none" marker-end="url(#arrow)"/>
    <path d="M458 207 C478 207 486 264 508 264" stroke="#64748b" stroke-width="3" fill="none" marker-end="url(#arrow)"/>
    <path d="M458 207 C486 207 486 364 508 364" stroke="#64748b" stroke-width="3" fill="none" marker-end="url(#arrow)"/>
    <path d="M672 164 C704 164 704 207 730 207" stroke="#64748b" stroke-width="3" fill="none" marker-end="url(#arrow)"/>
    <path d="M672 264 H704 C718 264 718 207 730 207" stroke="#64748b" stroke-width="3" fill="none" marker-end="url(#arrow)"/>
    <path d="M672 364 H704 C718 364 718 341 730 341" stroke="#64748b" stroke-width="3" fill="none" marker-end="url(#arrow)"/>
    <path d="M802 244 V304" stroke="#64748b" stroke-width="3" marker-end="url(#arrow)"/>

    <text x="298" y="426" font-size="14" fill="#334155">Gate thresholds: high-risk write work serializes; read-only fanout is capped; approvals and traces are budgeted.</text>
  </g>
  <defs>
    <marker id="arrow" viewBox="0 0 10 10" refX="9" refY="5" markerWidth="7" markerHeight="7" orient="auto-start-reverse">
      <path d="M 0 0 L 10 5 L 0 10 z" fill="#64748b"/>
    </marker>
  </defs>
</svg>
