<svg xmlns="http://www.w3.org/2000/svg" viewBox="0 0 960 520" role="img" aria-labelledby="title desc">
  <title id="title">AI media provenance gate architecture</title>
  <desc id="desc">Architecture diagram showing media intake, content credentials, watermark checks, conflict analysis, review routes, and publish controls.</desc>
  <rect width="960" height="520" fill="#f7fafc"/>
  <rect x="34" y="34" width="892" height="452" rx="8" fill="#ffffff" stroke="#d6dee8" stroke-width="2"/>
  <text x="72" y="82" fill="#17212b" font-family="Arial, sans-serif" font-size="28" font-weight="800">AI Media Provenance Gate</text>
  <text x="72" y="112" fill="#51606f" font-family="Arial, sans-serif" font-size="15">Route media by signed credentials, watermark evidence, disclosure state, and risk before public publishing.</text>
  <g font-family="Arial, sans-serif">
    <rect x="72" y="170" width="160" height="92" rx="8" fill="#e6f0fb" stroke="#5d8fc9" stroke-width="2"/>
    <text x="152" y="206" text-anchor="middle" fill="#18324a" font-size="17" font-weight="700">Media Intake</text>
    <text x="152" y="232" text-anchor="middle" fill="#405066" font-size="13">image audio video text</text>
    <path d="M232 216 L292 216" stroke="#758292" stroke-width="3" marker-end="url(#arrow)"/>
    <rect x="292" y="132" width="180" height="72" rx="8" fill="#eef8ed" stroke="#5a9b67" stroke-width="2"/>
    <text x="382" y="162" text-anchor="middle" fill="#203f28" font-size="16" font-weight="700">Content Credentials</text>
    <text x="382" y="185" text-anchor="middle" fill="#405066" font-size="12">manifest, signer, actions</text>
    <rect x="292" y="228" width="180" height="72" rx="8" fill="#fff4df" stroke="#d28b2f" stroke-width="2"/>
    <text x="382" y="258" text-anchor="middle" fill="#553712" font-size="16" font-weight="700">Watermark Detector</text>
    <text x="382" y="281" text-anchor="middle" fill="#405066" font-size="12">AI signal and confidence</text>
    <path d="M472 168 L548 218" stroke="#758292" stroke-width="3" marker-end="url(#arrow)"/>
    <path d="M472 264 L548 236" stroke="#758292" stroke-width="3" marker-end="url(#arrow)"/>
    <rect x="548" y="166" width="190" height="118" rx="8" fill="#f1ecfb" stroke="#7c65c9" stroke-width="2"/>
    <text x="643" y="202" text-anchor="middle" fill="#2f2460" font-size="17" font-weight="700">Conflict Gate</text>
    <text x="643" y="228" text-anchor="middle" fill="#405066" font-size="12">metadata, watermark, label</text>
    <text x="643" y="250" text-anchor="middle" fill="#405066" font-size="12">registry, risk, policy</text>
    <path d="M738 224 L804 174" stroke="#758292" stroke-width="3" marker-end="url(#arrow)"/>
    <path d="M738 224 L804 224" stroke="#758292" stroke-width="3" marker-end="url(#arrow)"/>
    <path d="M738 224 L804 274" stroke="#758292" stroke-width="3" marker-end="url(#arrow)"/>
    <rect x="804" y="132" width="84" height="70" rx="8" fill="#e8f6f0" stroke="#2f7d5f" stroke-width="2"/>
    <text x="846" y="162" text-anchor="middle" fill="#173d2d" font-size="14" font-weight="700">Publish</text>
    <text x="846" y="183" text-anchor="middle" fill="#405066" font-size="11">trusted</text>
    <rect x="804" y="212" width="84" height="70" rx="8" fill="#fff8e9" stroke="#d18b2f" stroke-width="2"/>
    <text x="846" y="242" text-anchor="middle" fill="#553712" font-size="14" font-weight="700">Review</text>
    <text x="846" y="263" text-anchor="middle" fill="#405066" font-size="11">missing proof</text>
    <rect x="804" y="292" width="84" height="70" rx="8" fill="#fdebec" stroke="#b43f3f" stroke-width="2"/>
    <text x="846" y="322" text-anchor="middle" fill="#5b1f20" font-size="14" font-weight="700">Block</text>
    <text x="846" y="343" text-anchor="middle" fill="#405066" font-size="11">high risk</text>
    <rect x="72" y="352" width="666" height="72" rx="8" fill="#f8fbfd" stroke="#ccd6e1" stroke-width="2"/>
    <text x="96" y="384" fill="#17212b" font-size="15" font-weight="700">Release metrics</text>
    <text x="96" y="407" fill="#405066" font-size="13">unsafe publishes, disclosure misses, machine-readable misses, conflict misses, review misses, false blocks</text>
  </g>
  <defs>
    <marker id="arrow" markerWidth="10" markerHeight="10" refX="8" refY="3" orient="auto" markerUnits="strokeWidth">
      <path d="M0,0 L0,6 L9,3 z" fill="#758292"/>
    </marker>
  </defs>
</svg>
