<svg xmlns="http://www.w3.org/2000/svg" width="920" height="520" viewBox="0 0 920 520" role="img" aria-labelledby="title desc">
  <title id="title">Inference cost release gate architecture</title>
  <desc id="desc">Architecture diagram showing request classification, token budget estimation, model route selection, cache policy, batch or realtime serving, and observability feedback for LLM inference cost gates.</desc>
  <rect width="920" height="520" fill="#f8fafc"/>
  <rect x="34" y="32" width="852" height="456" rx="8" fill="#ffffff" stroke="#cbd5e1"/>
  <text x="62" y="74" font-size="26" font-weight="700" fill="#111827">Inference cost release gates</text>
  <text x="62" y="104" font-size="15" fill="#475569">Route by task risk, token budget, cache reuse, latency SLO, and fallback evidence before launch.</text>
  <defs>
    <marker id="arrow" markerWidth="10" markerHeight="10" refX="8" refY="3" orient="auto">
      <path d="M0,0 L0,6 L9,3 z" fill="#64748b"/>
    </marker>
  </defs>
  <g font-family="Inter, Arial, sans-serif">
    <rect x="66" y="152" width="142" height="84" rx="8" fill="#dbeafe" stroke="#315fba"/>
    <text x="137" y="184" text-anchor="middle" font-size="17" font-weight="700" fill="#172033">Request</text>
    <text x="137" y="210" text-anchor="middle" font-size="13" fill="#334155">risk + SLO</text>

    <rect x="250" y="152" width="150" height="84" rx="8" fill="#dcfce7" stroke="#1f766e"/>
    <text x="325" y="181" text-anchor="middle" font-size="17" font-weight="700" fill="#172033">Budget gate</text>
    <text x="325" y="207" text-anchor="middle" font-size="13" fill="#334155">tokens + cache</text>

    <rect x="442" y="126" width="150" height="62" rx="8" fill="#fef3c7" stroke="#b45309"/>
    <text x="517" y="153" text-anchor="middle" font-size="16" font-weight="700" fill="#172033">Batch lane</text>
    <text x="517" y="174" text-anchor="middle" font-size="12" fill="#334155">low urgency</text>

    <rect x="442" y="216" width="150" height="62" rx="8" fill="#ede9fe" stroke="#7c3aed"/>
    <text x="517" y="243" text-anchor="middle" font-size="16" font-weight="700" fill="#172033">Realtime lane</text>
    <text x="517" y="264" text-anchor="middle" font-size="12" fill="#334155">latency bound</text>

    <rect x="634" y="152" width="152" height="84" rx="8" fill="#fee2e2" stroke="#dc2626"/>
    <text x="710" y="181" text-anchor="middle" font-size="17" font-weight="700" fill="#172033">Fallback gate</text>
    <text x="710" y="207" text-anchor="middle" font-size="13" fill="#334155">retry + rollback</text>

    <rect x="118" y="334" width="190" height="74" rx="8" fill="#ecfeff" stroke="#0891b2"/>
    <text x="213" y="363" text-anchor="middle" font-size="16" font-weight="700" fill="#172033">Metrics</text>
    <text x="213" y="386" text-anchor="middle" font-size="12" fill="#334155">cost, latency, quality</text>

    <rect x="364" y="334" width="190" height="74" rx="8" fill="#f1f5f9" stroke="#64748b"/>
    <text x="459" y="363" text-anchor="middle" font-size="16" font-weight="700" fill="#172033">Trace store</text>
    <text x="459" y="386" text-anchor="middle" font-size="12" fill="#334155">route decisions</text>

    <rect x="610" y="334" width="190" height="74" rx="8" fill="#fff7ed" stroke="#ea580c"/>
    <text x="705" y="363" text-anchor="middle" font-size="16" font-weight="700" fill="#172033">Release review</text>
    <text x="705" y="386" text-anchor="middle" font-size="12" fill="#334155">thresholds + owners</text>

    <line x1="208" y1="194" x2="246" y2="194" stroke="#64748b" stroke-width="2" marker-end="url(#arrow)"/>
    <line x1="400" y1="181" x2="438" y2="160" stroke="#64748b" stroke-width="2" marker-end="url(#arrow)"/>
    <line x1="400" y1="207" x2="438" y2="243" stroke="#64748b" stroke-width="2" marker-end="url(#arrow)"/>
    <line x1="592" y1="158" x2="630" y2="183" stroke="#64748b" stroke-width="2" marker-end="url(#arrow)"/>
    <line x1="592" y1="247" x2="630" y2="206" stroke="#64748b" stroke-width="2" marker-end="url(#arrow)"/>
    <line x1="710" y1="236" x2="708" y2="330" stroke="#64748b" stroke-width="2" marker-end="url(#arrow)"/>
    <line x1="400" y1="236" x2="238" y2="330" stroke="#64748b" stroke-width="2" marker-end="url(#arrow)"/>
    <line x1="325" y1="236" x2="442" y2="330" stroke="#64748b" stroke-width="2" marker-end="url(#arrow)"/>
    <line x1="554" y1="371" x2="606" y2="371" stroke="#64748b" stroke-width="2" marker-end="url(#arrow)"/>
  </g>
</svg>
