<svg xmlns="http://www.w3.org/2000/svg" viewBox="0 0 1600 900" role="img" aria-labelledby="title desc">
  <title id="title">LLM context boundary evaluation results</title>
  <desc id="desc">Bar chart showing decision accuracy, abstention accuracy, citation recall, mean score, and unsupported hallucination rate from a local LLM evaluation.</desc>
  <rect width="1600" height="900" fill="#f7f3ea"/>
  <rect x="80" y="74" width="1440" height="752" rx="28" fill="#10241f"/>
  <text x="150" y="158" fill="#f5d46c" font-family="Arial, sans-serif" font-size="54" font-weight="900">LLM Context Boundary Evaluation</text>
  <text x="150" y="214" fill="#d7e7dc" font-family="Arial, sans-serif" font-size="27">Local Qwen3.6 35B judged supported, unsupported, conflicting, and distractor-heavy questions.</text>
  <rect x="116" y="236" width="1316" height="559" rx="22" fill="#fffaf0"/>
  <line x1="180" y1="704" x2="1330" y2="704" stroke="#b9ad96" stroke-width="3"/>
  <line x1="180" y1="298" x2="180" y2="704" stroke="#b9ad96" stroke-width="3"/>
  <rect x="220" y="298" width="170" height="406" rx="14" fill="#0f766e"/>
  <rect x="462" y="298" width="170" height="406" rx="14" fill="#2563eb"/>
  <rect x="704" y="374" width="170" height="330" rx="14" fill="#7c3aed"/>
  <rect x="946" y="350" width="170" height="354" rx="14" fill="#d97706"/>
  <rect x="1188" y="700" width="170" height="4" rx="2" fill="#dc2626"/>
  <g font-family="Arial, sans-serif" font-size="28" font-weight="800" fill="#10241f" text-anchor="middle">
    <text x="305" y="280">1.00</text>
    <text x="547" y="280">1.00</text>
    <text x="789" y="356">0.81</text>
    <text x="1031" y="332">0.87</text>
    <text x="1273" y="680">0.00</text>
  </g>
  <g font-family="Arial, sans-serif" font-size="21" fill="#24342f" text-anchor="middle">
    <text x="305" y="744">decision</text>
    <text x="305" y="770">accuracy</text>
    <text x="547" y="744">abstention</text>
    <text x="547" y="770">accuracy</text>
    <text x="789" y="744">citation</text>
    <text x="789" y="770">recall</text>
    <text x="1031" y="744">mean</text>
    <text x="1031" y="770">score</text>
    <text x="1273" y="744">unsupported</text>
    <text x="1273" y="770">hallucination</text>
  </g>
  <text x="150" y="842" fill="#d7e7dc" font-family="Arial, sans-serif" font-size="25">Eight local evaluation cases. Lower unsupported hallucination is better.</text>
</svg>
