<svg xmlns="http://www.w3.org/2000/svg" viewBox="0 0 960 540" role="img" aria-labelledby="title desc">
  <title id="title">Covert-channel agent trace gate results</title>
  <desc id="desc">Grouped bar chart comparing content-only, tool-boundary, and trace-budget policies on accuracy, mean score, and false negatives.</desc>
  <rect width="960" height="540" fill="#f8faf7"/>
  <text x="48" y="42" font-family="Inter, Arial, sans-serif" font-size="26" font-weight="700" fill="#17202a">Trace gates catch hidden coordination surfaces</text>
  <text x="48" y="66" font-family="Inter, Arial, sans-serif" font-size="15" fill="#51606b">False negatives are scaled against a six-case ceiling; lower is better.</text>
  <line x1="80" y1="455" x2="918" y2="455" stroke="#9aa7b0" stroke-width="1.5"/>
  <line x1="80" y1="70" x2="80" y2="455" stroke="#9aa7b0" stroke-width="1.5"/>
  <text x="33" y="82" font-family="Inter, Arial, sans-serif" font-size="13" fill="#51606b">1.0</text>
  <text x="33" y="459" font-family="Inter, Arial, sans-serif" font-size="13" fill="#51606b">0</text>
  <rect x="112" y="358.75" width="42" height="96.25" rx="5" fill="#1f7a8c"/>
<text x="133" y="348.75" text-anchor="middle" font-family="Inter, Arial, sans-serif" font-size="15" fill="#17202a">0.250</text>
<rect x="168" y="294.45500000000004" width="42" height="160.545" rx="5" fill="#bf4e30"/>
<text x="189" y="284.45500000000004" text-anchor="middle" font-family="Inter, Arial, sans-serif" font-size="15" fill="#17202a">0.417</text>
<rect x="224" y="198.33333333333337" width="42" height="256.66666666666663" rx="5" fill="#6b5b95"/>
<text x="245" y="188.33333333333337" text-anchor="middle" font-family="Inter, Arial, sans-serif" font-size="15" fill="#17202a">4</text>
<rect x="391.3333333333333" y="101.95499999999998" width="42" height="353.045" rx="5" fill="#1f7a8c"/>
<text x="412.3333333333333" y="91.95499999999998" text-anchor="middle" font-family="Inter, Arial, sans-serif" font-size="15" fill="#17202a">0.917</text>
<rect x="447.3333333333333" y="86.17000000000002" width="42" height="368.83" rx="5" fill="#bf4e30"/>
<text x="468.3333333333333" y="76.17000000000002" text-anchor="middle" font-family="Inter, Arial, sans-serif" font-size="15" fill="#17202a">0.958</text>
<rect x="503.3333333333333" y="390.83333333333337" width="42" height="64.16666666666666" rx="5" fill="#6b5b95"/>
<text x="524.3333333333333" y="380.83333333333337" text-anchor="middle" font-family="Inter, Arial, sans-serif" font-size="15" fill="#17202a">1</text>
<rect x="670.6666666666666" y="70" width="42" height="385" rx="5" fill="#1f7a8c"/>
<text x="691.6666666666666" y="60" text-anchor="middle" font-family="Inter, Arial, sans-serif" font-size="15" fill="#17202a">1.000</text>
<rect x="726.6666666666666" y="70" width="42" height="385" rx="5" fill="#bf4e30"/>
<text x="747.6666666666666" y="60" text-anchor="middle" font-family="Inter, Arial, sans-serif" font-size="15" fill="#17202a">1.000</text>
<rect x="782.6666666666666" y="455" width="42" height="0" rx="5" fill="#6b5b95"/>
<text x="803.6666666666666" y="445" text-anchor="middle" font-family="Inter, Arial, sans-serif" font-size="15" fill="#17202a">0</text>
  <text x="219.66666666666666" y="508" text-anchor="middle" font-family="Inter, Arial, sans-serif" font-size="18" fill="#17202a">contentOnly</text>
<text x="499" y="508" text-anchor="middle" font-family="Inter, Arial, sans-serif" font-size="18" fill="#17202a">toolBoundary</text>
<text x="778.3333333333333" y="508" text-anchor="middle" font-family="Inter, Arial, sans-serif" font-size="18" fill="#17202a">traceBudget</text>
  <g transform="translate(78 478)" font-family="Inter, Arial, sans-serif" font-size="15" fill="#17202a">
    <rect x="0" y="0" width="18" height="18" rx="3" fill="#1f7a8c"/><text x="28" y="14">Accuracy</text>
    <rect x="138" y="0" width="18" height="18" rx="3" fill="#bf4e30"/><text x="166" y="14">Mean score</text>
    <rect x="306" y="0" width="18" height="18" rx="3" fill="#6b5b95"/><text x="334" y="14">False negatives</text>
  </g>
</svg>
