<svg xmlns="http://www.w3.org/2000/svg" width="1000" height="560" viewBox="0 0 1000 560" data-text-fit="bounded" data-visual-quality="publication" data-visual-system="fieldbook-v2">
<title>Retrieval fusion nDCG at 10 on SciFact and NFCorpus</title>
<desc>Grouped bars compare unigram and bigram BM25 with normalized score fusion and reciprocal rank fusion.</desc>
  <!-- fieldbook-visual-system:v2 -->
  <defs id="fieldbook-v2-defs">
    <pattern id="fieldbook-grid" width="32" height="32" patternUnits="userSpaceOnUse">
      <path d="M 32 0 L 0 0 0 32" fill="none" stroke="#27323d" stroke-width="1"/>
    </pattern>
  </defs>
  <g aria-hidden="true" data-fieldbook-frame="background">
    <rect width="1000" height="560" fill="#080c12"/>
    <rect width="1000" height="560" fill="url(#fieldbook-grid)" opacity="0.32"/>
  </g>

<text x="60" y="55" font-family="ui-monospace, SFMono-Regular, Menlo, monospace" font-size="25" font-weight="700" fill="#0f172a">Fusion gains depend on ranker diversity</text>
<text x="60" y="84" font-family="ui-monospace, SFMono-Regular, Menlo, monospace" font-size="14" fill="#475569">BEIR test qrels · exact lexical retrieval · higher nDCG@10 is better</text>
<line x1="90" y1="440" x2="910" y2="440" stroke="#64748b" stroke-width="2"/>
<line x1="90" y1="440" x2="910" y2="440" stroke="#334250" stroke-width="1"/>
<text x="48" y="445" font-family="ui-monospace, SFMono-Regular, Menlo, monospace" font-size="12" fill="#475569">0.0</text>
<line x1="90" y1="395" x2="910" y2="395" stroke="#334250" stroke-width="1"/>
<text x="48" y="400" font-family="ui-monospace, SFMono-Regular, Menlo, monospace" font-size="12" fill="#475569">0.1</text>
<line x1="90" y1="350" x2="910" y2="350" stroke="#334250" stroke-width="1"/>
<text x="48" y="355" font-family="ui-monospace, SFMono-Regular, Menlo, monospace" font-size="12" fill="#475569">0.2</text>
<line x1="90" y1="305" x2="910" y2="305" stroke="#334250" stroke-width="1"/>
<text x="48" y="310" font-family="ui-monospace, SFMono-Regular, Menlo, monospace" font-size="12" fill="#475569">0.3</text>
<line x1="90" y1="260" x2="910" y2="260" stroke="#334250" stroke-width="1"/>
<text x="48" y="265" font-family="ui-monospace, SFMono-Regular, Menlo, monospace" font-size="12" fill="#475569">0.4</text>
<line x1="90" y1="215" x2="910" y2="215" stroke="#334250" stroke-width="1"/>
<text x="48" y="220" font-family="ui-monospace, SFMono-Regular, Menlo, monospace" font-size="12" fill="#475569">0.5</text>
<line x1="90" y1="170" x2="910" y2="170" stroke="#334250" stroke-width="1"/>
<text x="48" y="175" font-family="ui-monospace, SFMono-Regular, Menlo, monospace" font-size="12" fill="#475569">0.6</text>
<line x1="90" y1="125" x2="910" y2="125" stroke="#334250" stroke-width="1"/>
<text x="48" y="130" font-family="ui-monospace, SFMono-Regular, Menlo, monospace" font-size="12" fill="#475569">0.7</text>
<rect x="210" y="142.8" width="46" height="297.2" rx="4" fill="#52dcef"/>
<text x="233" y="135.8" text-anchor="middle" font-family="ui-monospace, SFMono-Regular, Menlo, monospace" font-size="11" fill="#0f172a">0.660</text>
<rect x="272" y="232.9" width="46" height="207.1" rx="4" fill="#43d6a0"/>
<text x="295" y="225.9" text-anchor="middle" font-family="ui-monospace, SFMono-Regular, Menlo, monospace" font-size="11" fill="#0f172a">0.460</text>
<rect x="334" y="177.6" width="46" height="262.4" rx="4" fill="#ffb84d"/>
<text x="357" y="170.6" text-anchor="middle" font-family="ui-monospace, SFMono-Regular, Menlo, monospace" font-size="11" fill="#0f172a">0.583</text>
<rect x="396" y="197.1" width="46" height="242.9" rx="4" fill="#be123c"/>
<text x="419" y="190.1" text-anchor="middle" font-family="ui-monospace, SFMono-Regular, Menlo, monospace" font-size="11" fill="#0f172a">0.540</text>
<text x="326" y="470" text-anchor="middle" font-family="ui-monospace, SFMono-Regular, Menlo, monospace" font-size="16" font-weight="700" fill="#0f172a">SCIFACT</text>
<rect x="630" y="301.4" width="46" height="138.6" rx="4" fill="#52dcef"/>
<text x="653" y="294.4" text-anchor="middle" font-family="ui-monospace, SFMono-Regular, Menlo, monospace" font-size="11" fill="#0f172a">0.308</text>
<rect x="692" y="385.2" width="46" height="54.8" rx="4" fill="#43d6a0"/>
<text x="715" y="378.2" text-anchor="middle" font-family="ui-monospace, SFMono-Regular, Menlo, monospace" font-size="11" fill="#0f172a">0.122</text>
<rect x="754" y="308.1" width="46" height="131.9" rx="4" fill="#ffb84d"/>
<text x="777" y="301.1" text-anchor="middle" font-family="ui-monospace, SFMono-Regular, Menlo, monospace" font-size="11" fill="#0f172a">0.293</text>
<rect x="816" y="310.2" width="46" height="129.8" rx="4" fill="#be123c"/>
<text x="839" y="303.2" text-anchor="middle" font-family="ui-monospace, SFMono-Regular, Menlo, monospace" font-size="11" fill="#0f172a">0.289</text>
<text x="746" y="470" text-anchor="middle" font-family="ui-monospace, SFMono-Regular, Menlo, monospace" font-size="16" font-weight="700" fill="#0f172a">NFCORPUS</text>
<rect x="85" y="510" width="18" height="18" rx="3" fill="#52dcef"/>
<text x="111" y="524" font-family="ui-monospace, SFMono-Regular, Menlo, monospace" font-size="12" fill="#334155">Unigram BM25</text>
<rect x="305" y="510" width="18" height="18" rx="3" fill="#43d6a0"/>
<text x="331" y="524" font-family="ui-monospace, SFMono-Regular, Menlo, monospace" font-size="12" fill="#334155">Bigram BM25</text>
<rect x="525" y="510" width="18" height="18" rx="3" fill="#ffb84d"/>
<text x="551" y="524" font-family="ui-monospace, SFMono-Regular, Menlo, monospace" font-size="12" fill="#334155">Min-max score fusion</text>
<rect x="745" y="510" width="18" height="18" rx="3" fill="#be123c"/>
<text x="771" y="524" font-family="ui-monospace, SFMono-Regular, Menlo, monospace" font-size="12" fill="#334155">RRF (k=60)</text>
  <style id="fieldbook-v2-theme">
    text { fill: #e4eaed !important; font-family: Inter, system-ui, sans-serif !important; letter-spacing: 0; }
    .title { fill: #f7faf9 !important; font-weight: 750 !important; }
    .subtitle, .sub, .note, .axis, .legend, .body, .small { fill: #8d9aa6 !important; }
    .label, .smallTitle, .metric, .headtext { fill: #e7edef !important; }
    path, line, polyline { stroke-linecap: round; stroke-linejoin: round; }
    .fieldbook-kicker { fill: #73818e !important; font-family: ui-monospace, SFMono-Regular, Consolas, monospace !important; font-size: 11px !important; font-weight: 750 !important; }
  </style>
  <g aria-hidden="true" data-fieldbook-frame="overlay">
    <line x1="24" y1="116" x2="976" y2="116" stroke="#2a3641" stroke-width="1"/>
    <circle cx="28" cy="26" r="4" fill="#b8f56a"/>
    <circle cx="42" cy="26" r="4" fill="#52dcef"/>
    <text class="fieldbook-kicker" x="976" y="30" text-anchor="end">AI SYSTEMS FIELDBOOK / SYSTEM ARCHITECTURE</text>
    <rect x="0.5" y="0.5" width="999" height="559" rx="8" fill="none" stroke="#2b3742" stroke-width="1"/>
  </g>
</svg>
