<svg xmlns="http://www.w3.org/2000/svg" width="1200" height="675" viewBox="0 0 1200 675" data-visual-quality="publication" data-visual-system="fieldbook-v2" data-text-fit="bounded">
  <title>Paired validation-loss gains from decaying dropout across six regimes</title>
  <desc>Horizontal bars show mean validation cross-entropy reduction with 95 percent bootstrap intervals for three datasets at four and eight million token prefixes. Every interval is above zero.</desc>
  <!-- fieldbook-visual-system:v2 -->
  <defs id="fieldbook-v2-defs">
    <pattern id="fieldbook-grid" width="32" height="32" patternUnits="userSpaceOnUse">
      <path d="M 32 0 L 0 0 0 32" fill="none" stroke="#27323d" stroke-width="1"/>
    </pattern>
  </defs>
  <g aria-hidden="true" data-fieldbook-frame="background">
    <rect width="1200" height="675" fill="#080c12"/>
    <rect width="1200" height="675" fill="url(#fieldbook-grid)" opacity="0.32"/>
  </g>

  <style>
    text { font-family: Inter, ui-sans-serif, system-ui, sans-serif; fill: #101720; }
    .eyebrow { font-size: 15px; font-weight: 700; letter-spacing: 1px; fill: #5eead4; }
    .title { font-size: 35px; font-weight: 760; }
    .subtitle { font-size: 17px; fill: #a8b6ca; }
    .row-label { font-size: 17px; font-weight: 680; }
    .value { font-size: 16px; font-weight: 680; }
    .tick { font-size: 13px; fill: #91a1b7; }
    .grid { stroke: #26364c; stroke-width: 1; }
    .note { font-size: 14px; fill: #fda4af; }
  </style>
  <text x="70" y="66" class="eyebrow">MATCHED MULTI-SEED RESULT</text>
  <text x="70" y="112" class="title">Decay wins late, but not from the first token</text>
  <text x="70" y="146" class="subtitle">Paired gain over each seed's best static-dropout run; whiskers are stored 95% bootstrap intervals.</text>
  <rect x="67" y="177" width="1066" height="425" rx="8" fill="#0c1a2b" stroke="#24364d"/>
  <line x1="250" y1="204" x2="250" y2="565" class="grid"/>
    <text x="250" y="592" class="tick" text-anchor="middle">0.00</text><line x1="365" y1="204" x2="365" y2="565" class="grid"/>
    <text x="365" y="592" class="tick" text-anchor="middle">0.01</text><line x1="480" y1="204" x2="480" y2="565" class="grid"/>
    <text x="480" y="592" class="tick" text-anchor="middle">0.02</text><line x1="595" y1="204" x2="595" y2="565" class="grid"/>
    <text x="595" y="592" class="tick" text-anchor="middle">0.03</text><line x1="710" y1="204" x2="710" y2="565" class="grid"/>
    <text x="710" y="592" class="tick" text-anchor="middle">0.04</text><line x1="825" y1="204" x2="825" y2="565" class="grid"/>
    <text x="825" y="592" class="tick" text-anchor="middle">0.05</text><line x1="940" y1="204" x2="940" y2="565" class="grid"/>
    <text x="940" y="592" class="tick" text-anchor="middle">0.06</text>

    <text x="82" y="243" class="row-label">OWT 4M</text>
    <rect x="250" y="227" width="544.2170925438404" height="22" rx="5" fill="#14b8a6" opacity="0.82"/>
    <line x1="689.9451307952404" y1="238" x2="885.4752756655216" y2="238" stroke="#101720" stroke-width="3"/>
    <line x1="689.9451307952404" y1="231" x2="689.9451307952404" y2="245" stroke="#101720" stroke-width="2"/>
    <line x1="885.4752756655216" y1="231" x2="885.4752756655216" y2="245" stroke="#101720" stroke-width="2"/>
    <circle cx="794.2170925438404" cy="238" r="6" fill="#101720"/>
    <text x="970" y="243" class="value">0.0473 nats</text>
    <text x="82" y="304" class="row-label">OWT 8M</text>
    <rect x="250" y="288" width="391.1615597705046" height="22" rx="5" fill="#14b8a6" opacity="0.82"/>
    <line x1="543.4094481170177" y1="299" x2="702.5386579334736" y2="299" stroke="#101720" stroke-width="3"/>
    <line x1="543.4094481170177" y1="292" x2="543.4094481170177" y2="306" stroke="#101720" stroke-width="2"/>
    <line x1="702.5386579334736" y1="292" x2="702.5386579334736" y2="306" stroke="#101720" stroke-width="2"/>
    <circle cx="641.1615597705046" cy="299" r="6" fill="#101720"/>
    <text x="970" y="304" class="value">0.0340 nats</text>
    <text x="82" y="365" class="row-label">Tiny 4M</text>
    <rect x="250" y="349" width="141.5538415312767" height="22" rx="5" fill="#9b87ff" opacity="0.82"/>
    <line x1="318.3423101902008" y1="360" x2="455.8311216533184" y2="360" stroke="#101720" stroke-width="3"/>
    <line x1="318.3423101902008" y1="353" x2="318.3423101902008" y2="367" stroke="#101720" stroke-width="2"/>
    <line x1="455.8311216533184" y1="353" x2="455.8311216533184" y2="367" stroke="#101720" stroke-width="2"/>
    <circle cx="391.5538415312767" cy="360" r="6" fill="#101720"/>
    <text x="970" y="365" class="value">0.0123 nats</text>
    <text x="82" y="426" class="row-label">Tiny 8M</text>
    <rect x="250" y="410" width="106.53585443894065" height="22" rx="5" fill="#9b87ff" opacity="0.82"/>
    <line x1="320.09928580373526" y1="421" x2="399.5339758694172" y2="421" stroke="#101720" stroke-width="3"/>
    <line x1="320.09928580373526" y1="414" x2="320.09928580373526" y2="428" stroke="#101720" stroke-width="2"/>
    <line x1="399.5339758694172" y1="414" x2="399.5339758694172" y2="428" stroke="#101720" stroke-width="2"/>
    <circle cx="356.53585443894065" cy="421" r="6" fill="#101720"/>
    <text x="970" y="426" class="value">0.0093 nats</text>
    <text x="82" y="487" class="row-label">Wiki 4M</text>
    <rect x="250" y="471" width="289.4636955112219" height="22" rx="5" fill="#38bdf8" opacity="0.82"/>
    <line x1="475.7058434188366" y1="482" x2="609.8085150122643" y2="482" stroke="#101720" stroke-width="3"/>
    <line x1="475.7058434188366" y1="475" x2="475.7058434188366" y2="489" stroke="#101720" stroke-width="2"/>
    <line x1="609.8085150122643" y1="475" x2="609.8085150122643" y2="489" stroke="#101720" stroke-width="2"/>
    <circle cx="539.4636955112219" cy="482" r="6" fill="#101720"/>
    <text x="970" y="487" class="value">0.0252 nats</text>
    <text x="82" y="548" class="row-label">Wiki 8M</text>
    <rect x="250" y="532" width="168.41837453345454" height="22" rx="5" fill="#38bdf8" opacity="0.82"/>
    <line x1="251.82206369936466" y1="543" x2="563.4750258177519" y2="543" stroke="#101720" stroke-width="3"/>
    <line x1="251.82206369936466" y1="536" x2="251.82206369936466" y2="550" stroke="#101720" stroke-width="2"/>
    <line x1="563.4750258177519" y1="536" x2="563.4750258177519" y2="550" stroke="#101720" stroke-width="2"/>
    <circle cx="418.41837453345454" cy="543" r="6" fill="#101720"/>
    <text x="970" y="548" class="value">0.0146 nats</text>
  <line x1="250" y1="204" x2="250" y2="565" stroke="#718096" stroke-width="2"/>
  <rect x="67" y="620" width="1066" height="36" rx="8" fill="#231923" stroke="#713b4c"/>
  <text x="86" y="644" class="note">Negative result: at the earliest 8M stage, decay was worse by +0.0630 OWT, +0.0005 TinyStories, and +0.0080 WikiText nats.</text>
  <style id="fieldbook-v2-theme">
    text { fill: #e4eaed !important; font-family: Inter, system-ui, sans-serif !important; letter-spacing: 0; }
    .title { fill: #f7faf9 !important; font-weight: 750 !important; }
    .subtitle, .sub, .note, .axis, .legend, .body, .small { fill: #8d9aa6 !important; }
    .label, .smallTitle, .metric, .headtext { fill: #e7edef !important; }
    path, line, polyline { stroke-linecap: round; stroke-linejoin: round; }
    .fieldbook-kicker { fill: #73818e !important; font-family: ui-monospace, SFMono-Regular, Consolas, monospace !important; font-size: 13px !important; font-weight: 750 !important; }
  </style>
  <g aria-hidden="true" data-fieldbook-frame="overlay">
    <circle cx="28" cy="26" r="4" fill="#b8f56a"/>
    <circle cx="42" cy="26" r="4" fill="#52dcef"/>
    <text class="fieldbook-kicker" x="1176" y="30" text-anchor="end">AI SYSTEMS FIELDBOOK / SYSTEM ARCHITECTURE</text>
    <rect x="0.5" y="0.5" width="1199" height="674" rx="8" fill="none" stroke="#2b3742" stroke-width="1"/>
  </g>
</svg>
