<svg xmlns="http://www.w3.org/2000/svg" viewBox="0 0 1280 720" role="img" data-visual-quality="publication" data-text-fit="bounded">
<title>Token ratios to aligned English across fourteen MMMLU translations</title>
<desc>Paired bars compare cl100k base and o200k base token counts for each translated language, with English normalized to one.</desc>
<rect width="1280" height="720" fill="#08131f"/>
<text x="72" y="58" fill="#f1f5f9" font-family="ui-monospace, SFMono-Regular, Menlo, monospace" font-size="28" font-weight="700">Multilingual token inflation fell, but did not disappear</text>
<text x="72" y="88" fill="#94a3b8" font-family="ui-monospace, SFMono-Regular, Menlo, monospace" font-size="15">1,140 aligned questions · 57 subjects · English = 1.00 · lower is fewer tokens</text>
<line x1="484.719261336051" y1="108" x2="484.719261336051" y2="590" stroke="#e2e8f0" stroke-width="1" stroke-dasharray="4 5"/>
<text x="466.719261336051" y="615" fill="#cbd5e1" font-family="ui-monospace, SFMono-Regular, Menlo, monospace" font-size="13">1.0×</text>
<text x="292" y="135" text-anchor="end" fill="#dbeafe" font-family="ui-monospace, SFMono-Regular, Menlo, monospace" font-size="14">BN-BD</text>
<rect x="310" y="120" width="820.0" height="11" rx="3" fill="#f59e0b"/>
<rect x="310" y="134" width="268.6" height="11" rx="3" fill="#38bdf8"/>
<text x="1138.0" y="130" fill="#fcd34d" font-family="ui-monospace, SFMono-Regular, Menlo, monospace" font-size="11">4.69×</text>
<text x="586.6" y="144" fill="#7dd3fc" font-family="ui-monospace, SFMono-Regular, Menlo, monospace" font-size="11">1.54×</text>
<text x="292" y="167" text-anchor="end" fill="#dbeafe" font-family="ui-monospace, SFMono-Regular, Menlo, monospace" font-size="14">HI-IN</text>
<rect x="310" y="152" width="675.0" height="11" rx="3" fill="#f59e0b"/>
<rect x="310" y="166" width="247.8" height="11" rx="3" fill="#38bdf8"/>
<text x="993.0" y="162" fill="#fcd34d" font-family="ui-monospace, SFMono-Regular, Menlo, monospace" font-size="11">3.86×</text>
<text x="565.8" y="176" fill="#7dd3fc" font-family="ui-monospace, SFMono-Regular, Menlo, monospace" font-size="11">1.42×</text>
<text x="292" y="199" text-anchor="end" fill="#dbeafe" font-family="ui-monospace, SFMono-Regular, Menlo, monospace" font-size="14">YO-NG</text>
<rect x="310" y="184" width="493.8" height="11" rx="3" fill="#f59e0b"/>
<rect x="310" y="198" width="370.5" height="11" rx="3" fill="#38bdf8"/>
<text x="811.8" y="194" fill="#fcd34d" font-family="ui-monospace, SFMono-Regular, Menlo, monospace" font-size="11">2.83×</text>
<text x="688.5" y="208" fill="#7dd3fc" font-family="ui-monospace, SFMono-Regular, Menlo, monospace" font-size="11">2.12×</text>
<text x="292" y="231" text-anchor="end" fill="#dbeafe" font-family="ui-monospace, SFMono-Regular, Menlo, monospace" font-size="14">AR-XY</text>
<rect x="310" y="216" width="434.0" height="11" rx="3" fill="#f59e0b"/>
<rect x="310" y="230" width="216.7" height="11" rx="3" fill="#38bdf8"/>
<text x="752.0" y="226" fill="#fcd34d" font-family="ui-monospace, SFMono-Regular, Menlo, monospace" font-size="11">2.48×</text>
<text x="534.7" y="240" fill="#7dd3fc" font-family="ui-monospace, SFMono-Regular, Menlo, monospace" font-size="11">1.24×</text>
<text x="292" y="263" text-anchor="end" fill="#dbeafe" font-family="ui-monospace, SFMono-Regular, Menlo, monospace" font-size="14">JA-JP</text>
<rect x="310" y="248" width="350.8" height="11" rx="3" fill="#f59e0b"/>
<rect x="310" y="262" width="270.0" height="11" rx="3" fill="#38bdf8"/>
<text x="668.8" y="258" fill="#fcd34d" font-family="ui-monospace, SFMono-Regular, Menlo, monospace" font-size="11">2.01×</text>
<text x="588.0" y="272" fill="#7dd3fc" font-family="ui-monospace, SFMono-Regular, Menlo, monospace" font-size="11">1.55×</text>
<text x="292" y="295" text-anchor="end" fill="#dbeafe" font-family="ui-monospace, SFMono-Regular, Menlo, monospace" font-size="14">KO-KR</text>
<rect x="310" y="280" width="341.8" height="11" rx="3" fill="#f59e0b"/>
<rect x="310" y="294" width="227.0" height="11" rx="3" fill="#38bdf8"/>
<text x="659.8" y="290" fill="#fcd34d" font-family="ui-monospace, SFMono-Regular, Menlo, monospace" font-size="11">1.96×</text>
<text x="545.0" y="304" fill="#7dd3fc" font-family="ui-monospace, SFMono-Regular, Menlo, monospace" font-size="11">1.30×</text>
<text x="292" y="327" text-anchor="end" fill="#dbeafe" font-family="ui-monospace, SFMono-Regular, Menlo, monospace" font-size="14">SW-KE</text>
<rect x="310" y="312" width="306.0" height="11" rx="3" fill="#f59e0b"/>
<rect x="310" y="326" width="244.0" height="11" rx="3" fill="#38bdf8"/>
<text x="624.0" y="322" fill="#fcd34d" font-family="ui-monospace, SFMono-Regular, Menlo, monospace" font-size="11">1.75×</text>
<text x="562.0" y="336" fill="#7dd3fc" font-family="ui-monospace, SFMono-Regular, Menlo, monospace" font-size="11">1.40×</text>
<text x="292" y="359" text-anchor="end" fill="#dbeafe" font-family="ui-monospace, SFMono-Regular, Menlo, monospace" font-size="14">ZH-CN</text>
<rect x="310" y="344" width="268.0" height="11" rx="3" fill="#f59e0b"/>
<rect x="310" y="358" width="195.9" height="11" rx="3" fill="#38bdf8"/>
<text x="586.0" y="354" fill="#fcd34d" font-family="ui-monospace, SFMono-Regular, Menlo, monospace" font-size="11">1.53×</text>
<text x="513.9" y="368" fill="#7dd3fc" font-family="ui-monospace, SFMono-Regular, Menlo, monospace" font-size="11">1.12×</text>
<text x="292" y="391" text-anchor="end" fill="#dbeafe" font-family="ui-monospace, SFMono-Regular, Menlo, monospace" font-size="14">DE-DE</text>
<rect x="310" y="376" width="258.5" height="11" rx="3" fill="#f59e0b"/>
<rect x="310" y="390" width="219.0" height="11" rx="3" fill="#38bdf8"/>
<text x="576.5" y="386" fill="#fcd34d" font-family="ui-monospace, SFMono-Regular, Menlo, monospace" font-size="11">1.48×</text>
<text x="537.0" y="400" fill="#7dd3fc" font-family="ui-monospace, SFMono-Regular, Menlo, monospace" font-size="11">1.25×</text>
<text x="292" y="423" text-anchor="end" fill="#dbeafe" font-family="ui-monospace, SFMono-Regular, Menlo, monospace" font-size="14">FR-FR</text>
<rect x="310" y="408" width="255.9" height="11" rx="3" fill="#f59e0b"/>
<rect x="310" y="422" width="223.7" height="11" rx="3" fill="#38bdf8"/>
<text x="573.9" y="418" fill="#fcd34d" font-family="ui-monospace, SFMono-Regular, Menlo, monospace" font-size="11">1.46×</text>
<text x="541.7" y="432" fill="#7dd3fc" font-family="ui-monospace, SFMono-Regular, Menlo, monospace" font-size="11">1.28×</text>
<text x="292" y="455" text-anchor="end" fill="#dbeafe" font-family="ui-monospace, SFMono-Regular, Menlo, monospace" font-size="14">IT-IT</text>
<rect x="310" y="440" width="251.3" height="11" rx="3" fill="#f59e0b"/>
<rect x="310" y="454" width="228.2" height="11" rx="3" fill="#38bdf8"/>
<text x="569.3" y="450" fill="#fcd34d" font-family="ui-monospace, SFMono-Regular, Menlo, monospace" font-size="11">1.44×</text>
<text x="546.2" y="464" fill="#7dd3fc" font-family="ui-monospace, SFMono-Regular, Menlo, monospace" font-size="11">1.31×</text>
<text x="292" y="487" text-anchor="end" fill="#dbeafe" font-family="ui-monospace, SFMono-Regular, Menlo, monospace" font-size="14">ID-ID</text>
<rect x="310" y="472" width="245.5" height="11" rx="3" fill="#f59e0b"/>
<rect x="310" y="486" width="204.7" height="11" rx="3" fill="#38bdf8"/>
<text x="563.5" y="482" fill="#fcd34d" font-family="ui-monospace, SFMono-Regular, Menlo, monospace" font-size="11">1.41×</text>
<text x="522.7" y="496" fill="#7dd3fc" font-family="ui-monospace, SFMono-Regular, Menlo, monospace" font-size="11">1.17×</text>
<text x="292" y="519" text-anchor="end" fill="#dbeafe" font-family="ui-monospace, SFMono-Regular, Menlo, monospace" font-size="14">ES-LA</text>
<rect x="310" y="504" width="237.5" height="11" rx="3" fill="#f59e0b"/>
<rect x="310" y="518" width="209.1" height="11" rx="3" fill="#38bdf8"/>
<text x="555.5" y="514" fill="#fcd34d" font-family="ui-monospace, SFMono-Regular, Menlo, monospace" font-size="11">1.36×</text>
<text x="527.1" y="528" fill="#7dd3fc" font-family="ui-monospace, SFMono-Regular, Menlo, monospace" font-size="11">1.20×</text>
<text x="292" y="551" text-anchor="end" fill="#dbeafe" font-family="ui-monospace, SFMono-Regular, Menlo, monospace" font-size="14">PT-BR</text>
<rect x="310" y="536" width="235.3" height="11" rx="3" fill="#f59e0b"/>
<rect x="310" y="550" width="201.3" height="11" rx="3" fill="#38bdf8"/>
<text x="553.3" y="546" fill="#fcd34d" font-family="ui-monospace, SFMono-Regular, Menlo, monospace" font-size="11">1.35×</text>
<text x="519.3" y="560" fill="#7dd3fc" font-family="ui-monospace, SFMono-Regular, Menlo, monospace" font-size="11">1.15×</text>
<rect x="72" y="624" width="1136" height="58" rx="8" fill="#102235" stroke="#24445f"/>
<circle cx="96" cy="647" r="6" fill="#f59e0b"/><text x="110" y="652" fill="#e2e8f0" font-family="ui-monospace, SFMono-Regular, Menlo, monospace" font-size="13">cl100k_base</text>
<circle cx="250" cy="647" r="6" fill="#38bdf8"/><text x="264" y="652" fill="#e2e8f0" font-family="ui-monospace, SFMono-Regular, Menlo, monospace" font-size="13">o200k_base</text>
<text x="450" y="652" fill="#f8fafc" font-family="ui-monospace, SFMono-Regular, Menlo, monospace" font-size="14">Median inflation: 64.3% → 29.0%</text>
<text x="940" y="652" fill="#a7f3d0" font-family="ui-monospace, SFMono-Regular, Menlo, monospace" font-size="14">14/14 improved</text>
<text x="96" y="672" fill="#94a3b8" font-family="ui-monospace, SFMono-Regular, Menlo, monospace" font-size="11">Ratios use summed paired token counts; uncertainty and comparability limits are reported in the article.</text>
</svg>
